<?xml version="1.0" standalone="no"?>
<!DOCTYPE svg PUBLIC "-//W3C//DTD SVG 20010904//EN"
 "http://www.w3.org/TR/2001/REC-SVG-20010904/DTD/svg10.dtd">
<svg version="1.0" xmlns="http://www.w3.org/2000/svg"
 width="256.000000pt" height="256.000000pt" viewBox="0 0 256.000000 256.000000"
 preserveAspectRatio="xMidYMid meet">
<metadata>
Created by potrace 1.14, written by Peter Selinger 2001-2017
</metadata>
<g transform="translate(0.000000,256.000000) scale(0.100000,-0.100000)"
fill="#000000" stroke="none">
<path d="M218 2539 c-41 -21 -63 -49 -73 -91 -4 -17 -16 -28 -32 -33 -41 -10
-73 -36 -94 -76 -63 -124 52 -242 178 -182 l35 16 89 -89 c49 -49 89 -92 89
-96 0 -4 -17 -34 -37 -65 -48 -75 -97 -192 -120 -286 l-18 -74 -55 -29 c-30
-16 -62 -41 -70 -56 -13 -25 -13 -31 0 -55 9 -16 36 -39 61 -52 l46 -25 7 -77
c16 -194 92 -385 222 -558 l47 -63 -131 -130 -130 -131 -35 16 c-70 34 -149
11 -182 -52 -40 -79 10 -184 98 -206 16 -5 28 -16 32 -33 15 -63 80 -112 147
-112 95 0 159 115 109 196 l-19 31 138 138 138 138 58 -36 c33 -19 83 -48 113
-63 46 -25 56 -35 66 -70 14 -47 65 -126 110 -167 92 -87 226 -129 340 -108
155 29 280 136 330 282 14 39 22 47 69 67 30 13 77 39 107 58 l53 35 134 -134
135 -135 -16 -35 c-46 -96 16 -197 120 -197 54 0 126 59 138 112 4 17 13 28
23 28 32 0 81 39 103 81 37 73 11 157 -56 185 -47 19 -84 18 -121 -5 l-31 -19
-132 132 -132 132 56 69 c113 141 205 372 221 556 6 70 10 82 28 89 12 4 36
20 54 35 57 48 37 100 -53 144 -37 18 -40 22 -62 107 -24 90 -91 243 -137 311
l-26 38 91 91 92 92 31 -19 c37 -23 74 -24 121 -5 67 28 93 112 56 185 -22 42
-71 81 -103 81 -10 0 -19 11 -23 28 -12 53 -84 112 -138 112 -104 0 -166 -101
-120 -197 l16 -35 -84 -84 -84 -84 -73 55 c-200 150 -397 215 -651 215 -244 0
-476 -77 -644 -214 -29 -23 -58 -46 -66 -50 -9 -6 -39 17 -101 79 l-88 88 19
31 c23 38 24 77 2 123 -32 69 -112 91 -185 52z m132 -36 c44 -40 49 -87 15
-137 l-27 -39 187 -187 187 -188 -42 -53 c-23 -30 -45 -55 -49 -57 -3 -1 -89
81 -191 183 -102 102 -192 185 -201 185 -9 0 -22 -7 -29 -15 -18 -22 -76 -29
-111 -15 -62 26 -76 121 -25 169 13 13 41 29 62 36 31 10 40 20 47 46 23 89
116 127 177 72z m2000 -8 c16 -15 32 -44 37 -63 7 -31 14 -37 42 -43 48 -10
91 -57 98 -106 5 -35 1 -45 -25 -74 -26 -29 -37 -34 -75 -34 -34 0 -52 6 -72
25 l-26 24 -190 -189 -190 -190 -20 25 c-12 14 -33 39 -49 56 l-28 31 179 179
c98 98 179 186 179 195 0 9 -7 22 -15 29 -21 18 -29 76 -15 111 27 63 116 76
170 24z m-820 -129 c147 -37 309 -118 408 -204 l33 -29 -71 -71 -71 -71 -64
44 c-84 57 -172 98 -270 127 -104 30 -305 32 -405 5 -85 -24 -231 -95 -297
-146 l-52 -40 -70 70 c-39 39 -71 75 -71 79 0 12 73 70 140 111 119 74 278
130 435 153 73 11 264 -4 355 -28z m-45 -240 c159 -43 306 -139 406 -266 32
-41 99 -150 99 -163 0 -2 -19 2 -41 10 -71 24 -257 51 -434 63 -333 24 -768
-13 -924 -77 -17 -7 37 91 91 165 87 118 266 232 418 267 41 9 80 19 85 21 24
9 246 -6 300 -20z m708 -282 c50 -98 66 -141 82 -207 13 -56 13 -58 -7 -51
-11 3 -61 14 -110 25 -50 10 -94 22 -98 26 -5 4 -18 33 -31 63 -13 30 -31 68
-40 83 l-16 28 75 74 76 73 17 -22 c10 -13 33 -54 52 -92z m-1698 57 c28 -26
61 -60 73 -74 l24 -25 -36 -75 c-20 -41 -36 -79 -36 -85 0 -5 -33 -16 -72 -22
-40 -7 -93 -19 -118 -26 -24 -7 -45 -12 -47 -10 -6 6 29 123 57 189 29 70 90
177 100 177 3 0 28 -22 55 -49z m1135 -271 c351 -25 618 -71 730 -128 73 -36
77 -61 18 -96 -39 -22 -171 -64 -255 -81 l-33 -7 0 68 c0 49 -5 72 -17 86 -22
25 -132 56 -261 74 -146 21 -706 30 -895 15 -239 -20 -404 -59 -427 -101 -6
-10 -10 -46 -10 -80 l0 -62 -36 6 c-20 4 -80 20 -134 35 -187 54 -212 95 -94
151 101 47 396 98 689 119 173 12 556 12 725 1z m-9 -100 c163 -13 352 -45
399 -68 l35 -17 -1 -100 c-4 -339 -238 -637 -571 -727 -100 -27 -276 -29 -376
-5 -131 32 -262 104 -354 195 -150 146 -232 335 -236 540 -2 111 -1 113 107
137 73 17 258 42 356 48 131 8 517 6 641 -3z m-1339 -218 c-7 -2 -12 -10 -12
-19 0 -12 2 -12 16 1 18 19 16 19 51 5 28 -11 48 -14 111 -17 25 -2 32 -6 32
-22 0 -18 -7 -20 -80 -20 -44 0 -79 -3 -79 -7 1 -5 0 -17 -1 -28 -2 -15 -4
-13 -11 10 -6 23 -7 17 -4 -25 2 -30 1 -46 -2 -35 -3 11 -8 25 -12 30 -4 6 -3
30 2 55 7 35 11 41 17 26 7 -20 7 -20 12 0 4 14 0 20 -12 21 -13 1 -20 -8 -25
-34 -8 -45 -13 -40 -19 24 -4 45 -2 51 12 46 10 -4 12 -8 4 -11z m2022 -20
c-4 -9 -6 -25 -5 -34 1 -10 -5 -28 -13 -40 -14 -20 -16 -21 -16 -4 0 17 -2 18
-17 4 -10 -9 -33 -16 -50 -16 -30 -1 -32 1 -23 19 9 16 7 19 -10 19 -12 0 -20
7 -20 18 0 13 16 23 58 36 31 9 63 20 71 23 8 3 11 1 7 -6 -4 -6 -2 -11 3 -11
6 0 11 8 12 18 0 10 2 12 6 4 3 -7 2 -20 -3 -30z m-191 -54 c3 -21 2 -38 -3
-38 -11 0 -21 45 -14 65 8 21 10 18 17 -27z m27 33 c0 -5 3 -24 6 -42 5 -32 5
-33 -10 -15 -18 22 -22 66 -6 66 6 0 10 -4 10 -9z m-1653 -63 c-3 -8 -6 -5 -6
6 -1 11 2 17 5 13 3 -3 4 -12 1 -19z m1763 -78 l-11 -25 6 25 c2 14 5 36 6 50
l2 25 4 -25 c2 -14 -1 -37 -7 -50z m-1741 7 c1 -5 -3 -5 -9 -2 -5 3 -10 16 -9
28 0 21 1 21 9 2 5 -11 9 -24 9 -28z m-193 -19 c4 -7 3 -8 -4 -4 -7 4 -12 2
-12 -5 0 -7 -3 -10 -6 -6 -6 5 3 27 11 27 2 0 7 -5 11 -12z m1756 -33 c-8 -16
-9 -16 -15 -1 -4 10 -3 15 3 11 6 -3 10 -1 10 6 0 7 3 10 6 6 3 -3 2 -13 -4
-22z m198 11 c0 -3 -4 -8 -10 -11 -5 -3 -10 -1 -10 4 0 6 5 11 10 11 6 0 10
-2 10 -4z m-1686 -134 c3 -5 -1 -9 -9 -9 -8 0 -12 4 -9 9 3 4 7 8 9 8 2 0 6
-4 9 -8z m1610 -48 c3 -8 2 -12 -4 -9 -6 3 -10 10 -10 16 0 14 7 11 14 -7z
m-1384 -201 c2 -2 -103 -111 -234 -242 l-238 -238 27 -39 c35 -51 29 -97 -16
-138 -27 -24 -38 -27 -72 -23 -48 7 -93 46 -104 94 -7 29 -15 37 -46 48 -22 7
-50 23 -63 36 -51 48 -37 143 25 169 35 14 93 7 111 -15 7 -8 20 -15 29 -15 9
0 119 103 246 230 l229 229 50 -46 c28 -26 53 -48 56 -50z m1287 -145 l232
-232 26 24 c20 19 38 25 72 25 38 0 49 -5 75 -34 26 -29 30 -39 25 -74 -7 -49
-50 -96 -98 -106 -27 -5 -34 -13 -42 -41 -27 -106 -168 -134 -207 -41 -14 35
-7 93 15 111 8 7 15 20 15 29 0 9 -103 119 -229 245 l-229 229 51 48 c29 27
54 48 57 49 3 0 109 -104 237 -232z m-1029 22 c6 0 12 -5 12 -11 0 -20 -23
-89 -29 -89 -18 1 -88 60 -104 88 -32 54 -18 64 50 36 32 -13 64 -24 71 -24z
m572 34 c0 -19 -46 -82 -73 -101 -56 -38 -64 -38 -77 1 -6 20 -10 41 -8 48 7
20 158 70 158 52z m-412 -64 l32 0 0 -56 0 -57 -52 6 c-29 3 -70 11 -90 17
l-37 11 14 40 c21 57 21 58 62 48 21 -5 53 -9 71 -9z m-204 -81 c24 -11 24
-12 9 -55 -8 -24 -19 -44 -23 -44 -11 0 -57 55 -75 89 -7 15 -17 45 -21 66
l-7 40 47 -43 c25 -23 57 -47 70 -53z m434 52 c7 -21 12 -43 12 -48 0 -11 -95
-33 -142 -33 -27 0 -28 1 -28 54 l0 55 48 4 c106 8 98 10 110 -32z m192 6 c0
-37 -53 -133 -86 -154 -21 -13 -23 -12 -38 32 l-15 46 32 17 c17 9 47 33 67
53 19 20 36 37 38 38 1 0 2 -14 2 -32z m-450 -106 l55 -6 3 -67 c3 -65 2 -68
-20 -68 -30 0 -92 17 -149 42 l-47 19 16 50 c16 50 16 50 52 43 19 -3 60 -9
90 -13z m291 -8 c28 -73 26 -79 -34 -101 -30 -12 -78 -24 -107 -28 l-51 -7 3
69 3 69 74 7 c41 4 76 10 79 13 12 11 23 4 33 -22z m-455 -99 c72 -42 156 -64
249 -64 140 0 255 47 335 137 l43 48 -7 -40 c-19 -111 -115 -232 -224 -283
-48 -22 -71 -27 -147 -27 -77 0 -98 4 -147 27 -111 52 -208 174 -225 283 l-6
40 43 -48 c23 -26 62 -59 86 -73z"/>
<path d="M883 1430 c-55 -11 -96 -33 -136 -74 -48 -48 -70 -101 -75 -179 -4
-58 0 -75 22 -122 79 -161 280 -204 414 -89 143 122 115 359 -51 438 -62 29
-117 37 -174 26z"/>
<path d="M1577 1429 c-60 -10 -133 -61 -169 -120 -117 -188 31 -428 249 -406
110 11 208 96 234 201 46 191 -114 358 -314 325z"/>
<path d="M1220 923 c-51 -46 -40 -128 21 -153 95 -40 173 78 100 151 -38 38
-80 39 -121 2z"/>
<path d="M2271 1264 c0 -11 3 -14 6 -6 3 7 2 16 -1 19 -3 4 -6 -2 -5 -13z"/>
<path d="M2215 1231 c-3 -5 -1 -12 5 -16 5 -3 10 1 10 9 0 18 -6 21 -15 7z"/>
</g>
</svg>
